<svg id="Layer_1" data-name="Layer 1" xmlns="http://www.w3.org/2000/svg" xmlns:xlink="http://www.w3.org/1999/xlink" width="540" height="540" viewBox="0 0 540 540"><defs><style>.cls-1{fill:url(#New_Gradient_Swatch_2);}.cls-2{fill:#fff;}.cls-3{fill:#3b3b4c;}.cls-4{fill:#17172d;}.cls-5{fill:url(#New_Gradient_Swatch_2-2);}.cls-6{fill:none;}</style><linearGradient id="New_Gradient_Swatch_2" x1="72" y1="90.5" x2="466" y2="90.5" gradientUnits="userSpaceOnUse"><stop offset="0.07" stop-color="#8dd7f7"/><stop offset="0.97" stop-color="#1993d8"/></linearGradient><linearGradient id="New_Gradient_Swatch_2-2" x1="153" y1="355.25" x2="386" y2="355.25" xlink:href="#New_Gradient_Swatch_2"/></defs><rect class="cls-1" x="72" y="7" width="394" height="167" rx="12"/><polygon class="cls-2" points="437 177 102 177 102 44 438 44 437 177"/><path class="cls-3" d="M438,77l-.73,156.83A13.16,13.16,0,0,1,424.13,247h-309A13.13,13.13,0,0,1,104,240.84l-.07-.13a13.1,13.1,0,0,1-1.94-6.88V77.6l.5.3,167.13,99.72Z" transform="translate(0)"/><path class="cls-4" d="M438,43.58v6.85l-.5.3L270.37,150.45,102,50.43V43.58c0-7.27,6.61-13.17,13.87-13.17h309a13.13,13.13,0,0,1,12.09,8s0,0,0,0A13.17,13.17,0,0,1,438,43.58Z" transform="translate(0)"/><path class="cls-5" d="M386,311H310V497a12,12,0,0,1-12,12H241a12,12,0,0,1-12-12V311H153L269.5,201.5Z" transform="translate(0)"/><rect class="cls-6" width="540" height="540"/></svg>